<svg width="152" height="40" viewBox="0 0 152 40" fill="none" xmlns="http://www.w3.org/2000/svg">
<path d="M101.456 1.20192V15H98.7555V6.05096L94.8724 12.4572H94.557L90.6738 6.07067V15H87.9536V1.20192H90.7527L94.7147 7.72644L98.657 1.20192H101.456ZM105.17 3.96154C104.75 3.96154 104.382 3.81042 104.066 3.50817C103.764 3.19279 103.613 2.82484 103.613 2.40433C103.613 1.98381 103.764 1.61587 104.066 1.30048C104.382 0.985095 104.75 0.827403 105.17 0.827403C105.604 0.827403 105.972 0.985095 106.274 1.30048C106.589 1.61587 106.747 1.98381 106.747 2.40433C106.747 2.82484 106.589 3.19279 106.274 3.50817C105.972 3.81042 105.604 3.96154 105.17 3.96154ZM103.909 15V5.14423H106.452V15H103.909ZM116.328 5.14423H118.812V14.5269C118.812 16.0513 118.306 17.2143 117.294 18.0159C116.296 18.8175 115.087 19.2183 113.667 19.2183C112.603 19.2183 111.663 19.0146 110.849 18.6072C110.047 18.1998 109.429 17.6019 108.996 16.8135L111.164 15.5716C111.663 16.4915 112.524 16.9514 113.746 16.9514C114.548 16.9514 115.179 16.7412 115.638 16.3207C116.098 15.9002 116.328 15.3022 116.328 14.5269V13.4625C115.579 14.4612 114.528 14.9606 113.175 14.9606C111.782 14.9606 110.612 14.4744 109.666 13.5019C108.733 12.5163 108.266 11.3205 108.266 9.91442C108.266 8.52147 108.739 7.33221 109.686 6.34663C110.632 5.36106 111.795 4.86827 113.175 4.86827C114.528 4.86827 115.579 5.36763 116.328 6.36635V5.14423ZM111.578 11.8659C112.104 12.3652 112.767 12.6149 113.569 12.6149C114.37 12.6149 115.027 12.3652 115.54 11.8659C116.066 11.3534 116.328 10.7029 116.328 9.91442C116.328 9.1391 116.066 8.50176 115.54 8.0024C115.027 7.4899 114.37 7.23365 113.569 7.23365C112.767 7.23365 112.104 7.4899 111.578 8.0024C111.065 8.50176 110.809 9.1391 110.809 9.91442C110.809 10.7029 111.065 11.3534 111.578 11.8659ZM126.598 4.86827C127.675 4.86827 128.562 5.22965 129.259 5.9524C129.968 6.67516 130.323 7.67388 130.323 8.94856V15H127.78V9.26394C127.78 8.60689 127.603 8.10753 127.248 7.76587C126.893 7.41106 126.42 7.23365 125.829 7.23365C125.172 7.23365 124.646 7.43734 124.252 7.84471C123.858 8.25208 123.661 8.86314 123.661 9.67788V15H121.118V1.20192H123.661V6.24808C124.278 5.3282 125.257 4.86827 126.598 4.86827ZM138.132 7.58846H135.904V11.6885C135.904 12.0301 135.99 12.2798 136.161 12.4375C136.331 12.5952 136.581 12.6872 136.91 12.7135C137.238 12.7266 137.646 12.72 138.132 12.6937V15C136.384 15.1971 135.149 15.0329 134.426 14.5072C133.716 13.9816 133.362 13.042 133.362 11.6885V7.58846H131.647V5.14423H133.362V3.15337L135.904 2.38461V5.14423H138.132V7.58846ZM146.562 5.14423H149.283L145.695 15C145.183 16.4192 144.499 17.4442 143.645 18.075C142.804 18.7189 141.753 19.008 140.491 18.9423V16.5769C141.175 16.5901 141.713 16.4455 142.108 16.1433C142.515 15.841 142.837 15.3548 143.073 14.6846L139.033 5.14423H141.812L144.374 11.7673L146.562 5.14423ZM101.456 21.2019V35H98.7555V26.051L94.8724 32.4572H94.557L90.6738 26.0707V35H87.9536V21.2019H90.7527L94.7147 27.7264L98.657 21.2019H101.456ZM112.306 33.7779C111.294 34.7766 110.059 35.276 108.6 35.276C107.141 35.276 105.906 34.7766 104.894 33.7779C103.896 32.766 103.396 31.5308 103.396 30.0721C103.396 28.6135 103.896 27.3848 104.894 26.3861C105.906 25.3742 107.141 24.8683 108.6 24.8683C110.059 24.8683 111.294 25.3742 112.306 26.3861C113.318 27.3848 113.824 28.6135 113.824 30.0721C113.824 31.5308 113.318 32.766 112.306 33.7779ZM106.688 32.0236C107.201 32.5361 107.838 32.7923 108.6 32.7923C109.362 32.7923 110 32.5361 110.512 32.0236C111.025 31.5111 111.281 30.8606 111.281 30.0721C111.281 29.2837 111.025 28.6332 110.512 28.1207C110 27.6082 109.362 27.3519 108.6 27.3519C107.838 27.3519 107.201 27.6082 106.688 28.1207C106.189 28.6332 105.939 29.2837 105.939 30.0721C105.939 30.8606 106.189 31.5111 106.688 32.0236ZM121.713 25.1442H124.512L120.766 35H117.869L114.124 25.1442H116.923L119.308 32.0433L121.713 25.1442ZM127.501 31.1168C127.843 32.3521 128.769 32.9697 130.281 32.9697C131.253 32.9697 131.989 32.6412 132.488 31.9841L134.538 33.1668C133.566 34.5729 132.133 35.276 130.241 35.276C128.612 35.276 127.304 34.7832 126.319 33.7976C125.333 32.812 124.84 31.5702 124.84 30.0721C124.84 28.5872 125.326 27.3519 126.299 26.3663C127.271 25.3676 128.52 24.8683 130.044 24.8683C131.49 24.8683 132.679 25.3676 133.612 26.3663C134.558 27.3651 135.031 28.6003 135.031 30.0721C135.031 30.4006 134.998 30.7489 134.933 31.1168H127.501ZM127.462 29.1457H132.488C132.344 28.4755 132.041 27.9761 131.582 27.6476C131.135 27.3191 130.622 27.1548 130.044 27.1548C129.361 27.1548 128.796 27.3322 128.349 27.687C127.902 28.0287 127.606 28.5149 127.462 29.1457ZM139.349 26.8394C139.586 26.2087 139.973 25.7356 140.512 25.4202C141.064 25.1048 141.675 24.9471 142.345 24.9471V27.7856C141.57 27.6936 140.873 27.8513 140.256 28.2587C139.651 28.666 139.349 29.3428 139.349 30.2889V35H136.806V25.1442H139.349V26.8394ZM145.87 27.9433C145.87 28.2061 146.041 28.4229 146.382 28.5937C146.737 28.7514 147.164 28.896 147.664 29.0274C148.163 29.1457 148.662 29.3034 149.162 29.5005C149.661 29.6845 150.082 29.9998 150.423 30.4466C150.778 30.8934 150.956 31.4519 150.956 32.1221C150.956 33.134 150.574 33.9159 149.812 34.4678C149.063 35.0066 148.124 35.276 146.994 35.276C144.97 35.276 143.59 34.4941 142.854 32.9303L145.062 31.6885C145.351 32.5426 145.995 32.9697 146.994 32.9697C147.9 32.9697 148.354 32.6872 148.354 32.1221C148.354 31.8593 148.176 31.649 147.821 31.4913C147.48 31.3205 147.059 31.1694 146.56 31.038C146.061 30.9066 145.561 30.7423 145.062 30.5452C144.562 30.3481 144.135 30.0393 143.781 29.6188C143.439 29.1851 143.268 28.6463 143.268 28.0024C143.268 27.03 143.623 26.2678 144.332 25.7159C145.055 25.1508 145.949 24.8683 147.013 24.8683C147.815 24.8683 148.544 25.0522 149.201 25.4202C149.858 25.775 150.377 26.2875 150.758 26.9577L148.59 28.1404C148.275 27.4702 147.749 27.1351 147.013 27.1351C146.685 27.1351 146.409 27.2074 146.185 27.3519C145.975 27.4965 145.87 27.6936 145.87 27.9433Z" fill="url(#paint0_linear_73_159)"/>
<path d="M80.4816 33.6738V2.62817H74.152L65.2371 17.3083L56.2777 2.62817H49.9481V3.92396C49.7704 3.88959 49.5879 3.87188 49.4033 3.87188H13.0009C12.3113 3.87188 11.6499 4.11911 11.1623 4.55919C10.6746 4.99926 10.4007 5.59613 10.4007 6.21849C10.4007 6.84086 10.6746 7.43773 11.1623 7.8778C11.6499 8.31788 12.3113 8.56511 13.0009 8.56511H49.4033C49.5879 8.56511 49.7704 8.5474 49.9481 8.51303V15.657C49.7704 15.6227 49.5879 15.6049 49.4033 15.6049H23.4016C22.712 15.6049 22.0506 15.8522 21.563 16.2923C21.0753 16.7323 20.8014 17.3292 20.8014 17.9516C20.8014 18.5739 21.0753 19.1708 21.563 19.6109C22.0506 20.0509 22.712 20.2982 23.4016 20.2982H49.4033C49.5879 20.2982 49.7704 20.2805 49.9481 20.2461V27.3901C49.7704 27.3557 49.5879 27.338 49.4033 27.338H33.8023C33.1127 27.338 32.4513 27.5852 31.9637 28.0253C31.476 28.4654 31.2021 29.0623 31.2021 29.6846C31.2021 30.307 31.476 30.9039 31.9637 31.3439C32.4513 31.784 33.1127 32.0312 33.8023 32.0312H49.4033C49.5879 32.0312 49.7704 32.0135 49.9481 31.9792V33.6738H56.0994V13.5829L64.8806 27.9526H65.5937L74.3749 13.5385V33.6738H80.4816Z" fill="url(#paint1_linear_73_159)"/>
<path d="M1.1556 4.26736C1.58319 4.00951 2.08591 3.87188 2.60018 3.87188C3.28979 3.87188 3.95115 4.11911 4.43878 4.55919C4.9264 4.99926 5.20035 5.59613 5.20035 6.21849C5.20035 6.68261 5.04785 7.1363 4.76214 7.5222C4.47643 7.9081 4.07034 8.20887 3.59522 8.38648C3.1201 8.56409 2.59729 8.61056 2.09291 8.52002C1.58852 8.42947 1.12522 8.20598 0.761575 7.8778C0.397934 7.54962 0.150291 7.13149 0.0499628 6.6763C-0.0503655 6.2211 0.00112661 5.74927 0.197928 5.32049C0.394729 4.8917 0.728 4.52521 1.1556 4.26736Z" fill="url(#paint2_linear_73_159)"/>
<path d="M11.5563 16.0004C11.9839 15.7426 12.4866 15.6049 13.0009 15.6049C13.6905 15.6049 14.3518 15.8522 14.8395 16.2923C15.3271 16.7323 15.601 17.3292 15.601 17.9516C15.601 18.4157 15.4486 18.8694 15.1628 19.2553C14.8771 19.6412 14.471 19.9419 13.9959 20.1195C13.5208 20.2972 12.998 20.3436 12.4936 20.2531C11.9892 20.1625 11.5259 19.939 11.1623 19.6109C10.7986 19.2827 10.551 18.8646 10.4507 18.4094C10.3503 17.9542 10.4018 17.4823 10.5986 17.0535C10.7954 16.6248 11.1287 16.2583 11.5563 16.0004Z" fill="url(#paint3_linear_73_159)"/>
<path d="M21.957 27.7335C22.3846 27.4756 22.8873 27.338 23.4016 27.338C24.0912 27.338 24.7525 27.5852 25.2402 28.0253C25.7278 28.4654 26.0018 29.0623 26.0018 29.6846C26.0018 30.1487 25.8493 30.6024 25.5635 30.9883C25.2778 31.3742 24.8717 31.675 24.3966 31.8526C23.9215 32.0302 23.3987 32.0767 22.8943 31.9861C22.3899 31.8956 21.9266 31.6721 21.563 31.3439C21.1993 31.0158 20.9517 30.5976 20.8514 30.1424C20.751 29.6872 20.8025 29.2154 20.9993 28.7866C21.1961 28.3578 21.5294 27.9913 21.957 27.7335Z" fill="url(#paint4_linear_73_159)"/>
<defs>
<linearGradient id="paint0_linear_73_159" x1="86.6724" y1="0" x2="99.2568" y2="52.6151" gradientUnits="userSpaceOnUse">
<stop stop-color="#FB8500"/>
<stop offset="1" stop-color="#000080"/>
</linearGradient>
<linearGradient id="paint1_linear_73_159" x1="0" y1="2.62817" x2="6.36099" y2="44.8426" gradientUnits="userSpaceOnUse">
<stop stop-color="#FB8500"/>
<stop offset="1" stop-color="#000080"/>
</linearGradient>
<linearGradient id="paint2_linear_73_159" x1="0" y1="2.62817" x2="6.36099" y2="44.8426" gradientUnits="userSpaceOnUse">
<stop stop-color="#FB8500"/>
<stop offset="1" stop-color="#000080"/>
</linearGradient>
<linearGradient id="paint3_linear_73_159" x1="0" y1="2.62817" x2="6.36099" y2="44.8426" gradientUnits="userSpaceOnUse">
<stop stop-color="#FB8500"/>
<stop offset="1" stop-color="#000080"/>
</linearGradient>
<linearGradient id="paint4_linear_73_159" x1="0" y1="2.62817" x2="6.36099" y2="44.8426" gradientUnits="userSpaceOnUse">
<stop stop-color="#FB8500"/>
<stop offset="1" stop-color="#000080"/>
</linearGradient>
</defs>
</svg>
