<svg width="24" height="24" viewBox="0 0 24 24" fill="none" xmlns="http://www.w3.org/2000/svg">
<mask id="path-1-outside-1_98_2443" maskUnits="userSpaceOnUse" x="2.13184" y="0.573242" width="20" height="24" fill="black">
<rect fill="white" x="2.13184" y="0.573242" width="20" height="24"/>
<path d="M3.9522 6.69584H7.69402V5.9322C7.68494 5.36307 7.7892 4.79783 8.00072 4.26939C8.21224 3.74095 8.52679 3.25988 8.92605 2.8542C9.32532 2.44852 9.80131 2.12634 10.3263 1.90642C10.8513 1.6865 11.4148 1.57324 11.984 1.57324C12.5532 1.57324 13.1167 1.6865 13.6417 1.90642C14.1667 2.12634 14.6427 2.44852 15.042 2.8542C15.4412 3.25988 15.7558 3.74095 15.9673 4.26939C16.1788 4.79783 16.2831 5.36307 16.274 5.9322V6.69584H20.0409C20.1489 6.69576 20.2559 6.71702 20.3557 6.7584C20.4555 6.79977 20.5461 6.86044 20.6224 6.93693C20.7753 7.09111 20.8619 7.29903 20.8635 7.5162V20.1544C20.8606 20.9347 20.5494 21.6822 19.9976 22.234C19.4458 22.7857 18.6983 23.097 17.918 23.0998H6.07729C5.29699 23.097 4.54947 22.7857 3.99771 22.234C3.44596 21.6822 3.13471 20.9347 3.13184 20.1544L3.13184 7.51729C3.13212 7.2997 3.21861 7.0911 3.37237 6.93714C3.52612 6.78318 3.73461 6.69641 3.9522 6.69584ZM6.6882 12.7973H8.3322C8.39007 12.7973 8.44556 12.8203 8.48648 12.8612C8.52739 12.9021 8.55038 12.9576 8.55038 13.0155V14.6584C8.55038 14.7162 8.52739 14.7717 8.48648 14.8127C8.44556 14.8536 8.39007 14.8766 8.3322 14.8766H6.69584C6.63797 14.8766 6.58248 14.8536 6.54156 14.8127C6.50064 14.7717 6.47765 14.7162 6.47765 14.6584V13.0122C6.47765 12.9543 6.50064 12.8988 6.54156 12.8579C6.58248 12.817 6.63797 12.794 6.69584 12.794L6.6882 12.7973ZM10.8773 14.4882C10.7231 14.4614 10.5834 14.381 10.4827 14.2613C10.3819 14.1416 10.3267 13.9901 10.3267 13.8337C10.3267 13.6772 10.3819 13.5257 10.4827 13.406C10.5834 13.2863 10.7231 13.2059 10.8773 13.1791H17.3387C17.494 13.2045 17.6352 13.2843 17.737 13.4042C17.8389 13.5241 17.8948 13.6763 17.8948 13.8337C17.8948 13.991 17.8389 14.1432 17.737 14.2631C17.6352 14.383 17.494 14.4628 17.3387 14.4882H10.8773ZM6.39256 18.6184C6.36125 18.5812 6.33804 18.538 6.32441 18.4914C6.31077 18.4447 6.30702 18.3958 6.31339 18.3476C6.31975 18.2995 6.3361 18.2532 6.36138 18.2117C6.38666 18.1702 6.42032 18.1345 6.4602 18.1067C6.53256 18.0363 6.62862 17.9955 6.72954 17.9923C6.83046 17.989 6.92894 18.0236 7.00565 18.0893L7.38856 18.482L8.34529 17.5002C8.38163 17.4678 8.42433 17.4434 8.47065 17.4286C8.51697 17.4137 8.56589 17.4087 8.61427 17.4138C8.66265 17.4189 8.70942 17.4341 8.75158 17.4584C8.79375 17.4827 8.83037 17.5155 8.85911 17.5547C8.9316 17.6251 8.97532 17.7199 8.98178 17.8207C8.98823 17.9216 8.95695 18.0212 8.89402 18.1002L7.62638 19.4038C7.59004 19.4362 7.54734 19.4606 7.50102 19.4755C7.4547 19.4903 7.40578 19.4954 7.3574 19.4902C7.30902 19.4851 7.26225 19.4699 7.22009 19.4456C7.17792 19.4214 7.1413 19.3885 7.11256 19.3493L7.08311 19.3177C7.06234 19.304 7.04297 19.2882 7.02529 19.2707L6.39256 18.6184ZM10.8347 19.1071C10.6806 19.0803 10.5408 19 10.4401 18.8802C10.3394 18.7605 10.2842 18.609 10.2842 18.4526C10.2842 18.2961 10.3394 18.1446 10.4401 18.0249C10.5408 17.9052 10.6806 17.8248 10.8347 17.798H17.2962C17.4504 17.8248 17.5901 17.9052 17.6908 18.0249C17.7915 18.1446 17.8468 18.2961 17.8468 18.4526C17.8468 18.609 17.7915 18.7605 17.6908 18.8802C17.5901 19 17.4504 19.0803 17.2962 19.1071H10.8347ZM8.73911 6.69584H15.2278V5.9322C15.2122 5.08219 14.8636 4.27225 14.257 3.67664C13.6504 3.08103 12.8342 2.74733 11.984 2.74733C11.1339 2.74733 10.3177 3.08103 9.71104 3.67664C9.1044 4.27225 8.75579 5.08219 8.7402 5.9322L8.73911 6.69584ZM7.69184 8.72384V7.74202H4.17911V20.1566C4.1814 20.6595 4.38205 21.1412 4.73747 21.497C5.09289 21.8528 5.57437 22.0541 6.07729 22.0569H17.9213C18.4242 22.0518 18.905 21.8497 19.2605 21.494C19.6161 21.1382 19.8179 20.6573 19.8227 20.1544V7.74093H16.274V8.73584C16.5148 8.85828 16.7069 9.0587 16.8191 9.3044C16.9313 9.55009 16.9569 9.82656 16.8918 10.0887C16.8266 10.3508 16.6746 10.5831 16.4604 10.7477C16.2463 10.9123 15.9826 10.9995 15.7126 10.995C15.4425 10.9905 15.182 10.8946 14.9734 10.7229C14.7649 10.5513 14.6206 10.314 14.5643 10.0499C14.5079 9.78574 14.5427 9.51028 14.663 9.26846C14.7833 9.02664 14.982 8.83274 15.2267 8.71838V7.74093H8.74129V8.72274C8.98406 8.84115 9.17954 9.03833 9.29583 9.28213C9.41211 9.52592 9.44234 9.80192 9.38159 10.0651C9.32083 10.3283 9.17267 10.5631 8.96128 10.7313C8.74989 10.8994 8.48776 10.9909 8.21765 10.9909C7.94755 10.9909 7.68541 10.8994 7.47403 10.7313C7.26264 10.5631 7.11448 10.3283 7.05372 10.0651C6.99296 9.80192 7.02319 9.52592 7.13948 9.28213C7.25577 9.03833 7.45125 8.84115 7.69402 8.72274L7.69184 8.72384Z"/>
</mask>
<path d="M3.9522 6.69584H7.69402V5.9322C7.68494 5.36307 7.7892 4.79783 8.00072 4.26939C8.21224 3.74095 8.52679 3.25988 8.92605 2.8542C9.32532 2.44852 9.80131 2.12634 10.3263 1.90642C10.8513 1.6865 11.4148 1.57324 11.984 1.57324C12.5532 1.57324 13.1167 1.6865 13.6417 1.90642C14.1667 2.12634 14.6427 2.44852 15.042 2.8542C15.4412 3.25988 15.7558 3.74095 15.9673 4.26939C16.1788 4.79783 16.2831 5.36307 16.274 5.9322V6.69584H20.0409C20.1489 6.69576 20.2559 6.71702 20.3557 6.7584C20.4555 6.79977 20.5461 6.86044 20.6224 6.93693C20.7753 7.09111 20.8619 7.29903 20.8635 7.5162V20.1544C20.8606 20.9347 20.5494 21.6822 19.9976 22.234C19.4458 22.7857 18.6983 23.097 17.918 23.0998H6.07729C5.29699 23.097 4.54947 22.7857 3.99771 22.234C3.44596 21.6822 3.13471 20.9347 3.13184 20.1544L3.13184 7.51729C3.13212 7.2997 3.21861 7.0911 3.37237 6.93714C3.52612 6.78318 3.73461 6.69641 3.9522 6.69584ZM6.6882 12.7973H8.3322C8.39007 12.7973 8.44556 12.8203 8.48648 12.8612C8.52739 12.9021 8.55038 12.9576 8.55038 13.0155V14.6584C8.55038 14.7162 8.52739 14.7717 8.48648 14.8127C8.44556 14.8536 8.39007 14.8766 8.3322 14.8766H6.69584C6.63797 14.8766 6.58248 14.8536 6.54156 14.8127C6.50064 14.7717 6.47765 14.7162 6.47765 14.6584V13.0122C6.47765 12.9543 6.50064 12.8988 6.54156 12.8579C6.58248 12.817 6.63797 12.794 6.69584 12.794L6.6882 12.7973ZM10.8773 14.4882C10.7231 14.4614 10.5834 14.381 10.4827 14.2613C10.3819 14.1416 10.3267 13.9901 10.3267 13.8337C10.3267 13.6772 10.3819 13.5257 10.4827 13.406C10.5834 13.2863 10.7231 13.2059 10.8773 13.1791H17.3387C17.494 13.2045 17.6352 13.2843 17.737 13.4042C17.8389 13.5241 17.8948 13.6763 17.8948 13.8337C17.8948 13.991 17.8389 14.1432 17.737 14.2631C17.6352 14.383 17.494 14.4628 17.3387 14.4882H10.8773ZM6.39256 18.6184C6.36125 18.5812 6.33804 18.538 6.32441 18.4914C6.31077 18.4447 6.30702 18.3958 6.31339 18.3476C6.31975 18.2995 6.3361 18.2532 6.36138 18.2117C6.38666 18.1702 6.42032 18.1345 6.4602 18.1067C6.53256 18.0363 6.62862 17.9955 6.72954 17.9923C6.83046 17.989 6.92894 18.0236 7.00565 18.0893L7.38856 18.482L8.34529 17.5002C8.38163 17.4678 8.42433 17.4434 8.47065 17.4286C8.51697 17.4137 8.56589 17.4087 8.61427 17.4138C8.66265 17.4189 8.70942 17.4341 8.75158 17.4584C8.79375 17.4827 8.83037 17.5155 8.85911 17.5547C8.9316 17.6251 8.97532 17.7199 8.98178 17.8207C8.98823 17.9216 8.95695 18.0212 8.89402 18.1002L7.62638 19.4038C7.59004 19.4362 7.54734 19.4606 7.50102 19.4755C7.4547 19.4903 7.40578 19.4954 7.3574 19.4902C7.30902 19.4851 7.26225 19.4699 7.22009 19.4456C7.17792 19.4214 7.1413 19.3885 7.11256 19.3493L7.08311 19.3177C7.06234 19.304 7.04297 19.2882 7.02529 19.2707L6.39256 18.6184ZM10.8347 19.1071C10.6806 19.0803 10.5408 19 10.4401 18.8802C10.3394 18.7605 10.2842 18.609 10.2842 18.4526C10.2842 18.2961 10.3394 18.1446 10.4401 18.0249C10.5408 17.9052 10.6806 17.8248 10.8347 17.798H17.2962C17.4504 17.8248 17.5901 17.9052 17.6908 18.0249C17.7915 18.1446 17.8468 18.2961 17.8468 18.4526C17.8468 18.609 17.7915 18.7605 17.6908 18.8802C17.5901 19 17.4504 19.0803 17.2962 19.1071H10.8347ZM8.73911 6.69584H15.2278V5.9322C15.2122 5.08219 14.8636 4.27225 14.257 3.67664C13.6504 3.08103 12.8342 2.74733 11.984 2.74733C11.1339 2.74733 10.3177 3.08103 9.71104 3.67664C9.1044 4.27225 8.75579 5.08219 8.7402 5.9322L8.73911 6.69584ZM7.69184 8.72384V7.74202H4.17911V20.1566C4.1814 20.6595 4.38205 21.1412 4.73747 21.497C5.09289 21.8528 5.57437 22.0541 6.07729 22.0569H17.9213C18.4242 22.0518 18.905 21.8497 19.2605 21.494C19.6161 21.1382 19.8179 20.6573 19.8227 20.1544V7.74093H16.274V8.73584C16.5148 8.85828 16.7069 9.0587 16.8191 9.3044C16.9313 9.55009 16.9569 9.82656 16.8918 10.0887C16.8266 10.3508 16.6746 10.5831 16.4604 10.7477C16.2463 10.9123 15.9826 10.9995 15.7126 10.995C15.4425 10.9905 15.182 10.8946 14.9734 10.7229C14.7649 10.5513 14.6206 10.314 14.5643 10.0499C14.5079 9.78574 14.5427 9.51028 14.663 9.26846C14.7833 9.02664 14.982 8.83274 15.2267 8.71838V7.74093H8.74129V8.72274C8.98406 8.84115 9.17954 9.03833 9.29583 9.28213C9.41211 9.52592 9.44234 9.80192 9.38159 10.0651C9.32083 10.3283 9.17267 10.5631 8.96128 10.7313C8.74989 10.8994 8.48776 10.9909 8.21765 10.9909C7.94755 10.9909 7.68541 10.8994 7.47403 10.7313C7.26264 10.5631 7.11448 10.3283 7.05372 10.0651C6.99296 9.80192 7.02319 9.52592 7.13948 9.28213C7.25577 9.03833 7.45125 8.84115 7.69402 8.72274L7.69184 8.72384Z" fill="black"/>
<path d="M3.9522 6.69584H7.69402V5.9322C7.68494 5.36307 7.7892 4.79783 8.00072 4.26939C8.21224 3.74095 8.52679 3.25988 8.92605 2.8542C9.32532 2.44852 9.80131 2.12634 10.3263 1.90642C10.8513 1.6865 11.4148 1.57324 11.984 1.57324C12.5532 1.57324 13.1167 1.6865 13.6417 1.90642C14.1667 2.12634 14.6427 2.44852 15.042 2.8542C15.4412 3.25988 15.7558 3.74095 15.9673 4.26939C16.1788 4.79783 16.2831 5.36307 16.274 5.9322V6.69584H20.0409C20.1489 6.69576 20.2559 6.71702 20.3557 6.7584C20.4555 6.79977 20.5461 6.86044 20.6224 6.93693C20.7753 7.09111 20.8619 7.29903 20.8635 7.5162V20.1544C20.8606 20.9347 20.5494 21.6822 19.9976 22.234C19.4458 22.7857 18.6983 23.097 17.918 23.0998H6.07729C5.29699 23.097 4.54947 22.7857 3.99771 22.234C3.44596 21.6822 3.13471 20.9347 3.13184 20.1544L3.13184 7.51729C3.13212 7.2997 3.21861 7.0911 3.37237 6.93714C3.52612 6.78318 3.73461 6.69641 3.9522 6.69584ZM6.6882 12.7973H8.3322C8.39007 12.7973 8.44556 12.8203 8.48648 12.8612C8.52739 12.9021 8.55038 12.9576 8.55038 13.0155V14.6584C8.55038 14.7162 8.52739 14.7717 8.48648 14.8127C8.44556 14.8536 8.39007 14.8766 8.3322 14.8766H6.69584C6.63797 14.8766 6.58248 14.8536 6.54156 14.8127C6.50064 14.7717 6.47765 14.7162 6.47765 14.6584V13.0122C6.47765 12.9543 6.50064 12.8988 6.54156 12.8579C6.58248 12.817 6.63797 12.794 6.69584 12.794L6.6882 12.7973ZM10.8773 14.4882C10.7231 14.4614 10.5834 14.381 10.4827 14.2613C10.3819 14.1416 10.3267 13.9901 10.3267 13.8337C10.3267 13.6772 10.3819 13.5257 10.4827 13.406C10.5834 13.2863 10.7231 13.2059 10.8773 13.1791H17.3387C17.494 13.2045 17.6352 13.2843 17.737 13.4042C17.8389 13.5241 17.8948 13.6763 17.8948 13.8337C17.8948 13.991 17.8389 14.1432 17.737 14.2631C17.6352 14.383 17.494 14.4628 17.3387 14.4882H10.8773ZM6.39256 18.6184C6.36125 18.5812 6.33804 18.538 6.32441 18.4914C6.31077 18.4447 6.30702 18.3958 6.31339 18.3476C6.31975 18.2995 6.3361 18.2532 6.36138 18.2117C6.38666 18.1702 6.42032 18.1345 6.4602 18.1067C6.53256 18.0363 6.62862 17.9955 6.72954 17.9923C6.83046 17.989 6.92894 18.0236 7.00565 18.0893L7.38856 18.482L8.34529 17.5002C8.38163 17.4678 8.42433 17.4434 8.47065 17.4286C8.51697 17.4137 8.56589 17.4087 8.61427 17.4138C8.66265 17.4189 8.70942 17.4341 8.75158 17.4584C8.79375 17.4827 8.83037 17.5155 8.85911 17.5547C8.9316 17.6251 8.97532 17.7199 8.98178 17.8207C8.98823 17.9216 8.95695 18.0212 8.89402 18.1002L7.62638 19.4038C7.59004 19.4362 7.54734 19.4606 7.50102 19.4755C7.4547 19.4903 7.40578 19.4954 7.3574 19.4902C7.30902 19.4851 7.26225 19.4699 7.22009 19.4456C7.17792 19.4214 7.1413 19.3885 7.11256 19.3493L7.08311 19.3177C7.06234 19.304 7.04297 19.2882 7.02529 19.2707L6.39256 18.6184ZM10.8347 19.1071C10.6806 19.0803 10.5408 19 10.4401 18.8802C10.3394 18.7605 10.2842 18.609 10.2842 18.4526C10.2842 18.2961 10.3394 18.1446 10.4401 18.0249C10.5408 17.9052 10.6806 17.8248 10.8347 17.798H17.2962C17.4504 17.8248 17.5901 17.9052 17.6908 18.0249C17.7915 18.1446 17.8468 18.2961 17.8468 18.4526C17.8468 18.609 17.7915 18.7605 17.6908 18.8802C17.5901 19 17.4504 19.0803 17.2962 19.1071H10.8347ZM8.73911 6.69584H15.2278V5.9322C15.2122 5.08219 14.8636 4.27225 14.257 3.67664C13.6504 3.08103 12.8342 2.74733 11.984 2.74733C11.1339 2.74733 10.3177 3.08103 9.71104 3.67664C9.1044 4.27225 8.75579 5.08219 8.7402 5.9322L8.73911 6.69584ZM7.69184 8.72384V7.74202H4.17911V20.1566C4.1814 20.6595 4.38205 21.1412 4.73747 21.497C5.09289 21.8528 5.57437 22.0541 6.07729 22.0569H17.9213C18.4242 22.0518 18.905 21.8497 19.2605 21.494C19.6161 21.1382 19.8179 20.6573 19.8227 20.1544V7.74093H16.274V8.73584C16.5148 8.85828 16.7069 9.0587 16.8191 9.3044C16.9313 9.55009 16.9569 9.82656 16.8918 10.0887C16.8266 10.3508 16.6746 10.5831 16.4604 10.7477C16.2463 10.9123 15.9826 10.9995 15.7126 10.995C15.4425 10.9905 15.182 10.8946 14.9734 10.7229C14.7649 10.5513 14.6206 10.314 14.5643 10.0499C14.5079 9.78574 14.5427 9.51028 14.663 9.26846C14.7833 9.02664 14.982 8.83274 15.2267 8.71838V7.74093H8.74129V8.72274C8.98406 8.84115 9.17954 9.03833 9.29583 9.28213C9.41211 9.52592 9.44234 9.80192 9.38159 10.0651C9.32083 10.3283 9.17267 10.5631 8.96128 10.7313C8.74989 10.8994 8.48776 10.9909 8.21765 10.9909C7.94755 10.9909 7.68541 10.8994 7.47403 10.7313C7.26264 10.5631 7.11448 10.3283 7.05372 10.0651C6.99296 9.80192 7.02319 9.52592 7.13948 9.28213C7.25577 9.03833 7.45125 8.84115 7.69402 8.72274L7.69184 8.72384Z" stroke="black" mask="url(#path-1-outside-1_98_2443)"/>
</svg>
